<svg width="68" height="68" viewBox="-2 -9.5 68 68" class="looka-1j8o68f">
  <defs id="SvgjsDefs1011"></defs>
  <g id="SvgjsG1012" featurekey="HdFLvg-0" transform="matrix(0.7201606408831914,0,0,0.7201606408831914,-3.600983145677164,-12.497666454222166)" fill="#111111">
    <path xmlns="http://www.w3.org/2000/svg" d="M21.768,35.732c-0.977-0.977-2.559-0.977-3.535,0l-12.5,12.5c-0.977,0.976-0.977,2.559,0,3.535l12.5,12.5  C18.721,64.756,19.36,65,20,65s1.279-0.244,1.768-0.732c0.977-0.977,0.977-2.559,0-3.535L11.035,50l10.732-10.732  C22.744,38.292,22.744,36.708,21.768,35.732z"></path>
    <path xmlns="http://www.w3.org/2000/svg" d="M81.768,35.732c-0.977-0.977-2.559-0.977-3.535,0c-0.977,0.976-0.977,2.559,0,3.535L88.965,50L78.232,60.732  c-0.977,0.977-0.977,2.559,0,3.535C78.721,64.756,79.36,65,80,65s1.279-0.244,1.768-0.732l12.5-12.5  c0.977-0.976,0.977-2.559,0-3.535L81.768,35.732z"></path>
    <path xmlns="http://www.w3.org/2000/svg" d="M65.604,19.442l-4.699-1.71c-0.689-0.251-1.409-0.378-2.138-0.378c-2.617,0-4.978,1.653-5.873,4.113l-1.709,4.696  c0,0.001-0.001,0.002-0.002,0.003s0,0.002,0,0.003l-17.1,46.982c-0.052,0.143-0.069,0.293-0.067,0.444c0,0.025-0.002,0.05,0,0.075  c0.001,0.017-0.002,0.034,0,0.051l1.917,16.66c0.055,0.471,0.37,0.87,0.814,1.032c0.14,0.051,0.284,0.075,0.428,0.075  c0.314,0,0.623-0.119,0.859-0.342l12.179-11.53c0.029-0.027,0.05-0.061,0.076-0.091c0.024-0.028,0.049-0.054,0.071-0.084  c0.069-0.094,0.129-0.195,0.169-0.305l17.1-46.983c0,0,0-0.001,0.001-0.001c0,0,0-0.001,0-0.001l1.71-4.698  c0.57-1.569,0.497-3.266-0.208-4.779C68.424,21.161,67.172,20.013,65.604,19.442z M55.243,22.322  c0.537-1.477,1.953-2.469,3.523-2.469c0.437,0,0.868,0.077,1.282,0.228l4.699,1.71c0.941,0.342,1.692,1.031,2.115,1.938  c0.424,0.908,0.468,1.926,0.125,2.867l-1.283,3.524l-8.22-2.992c-0.001,0-0.001-0.001-0.002-0.001s-0.001,0-0.002,0l-3.522-1.282  L55.243,22.322z M48.606,77.106l-2.35-0.855l16.246-44.634l2.348,0.855L48.606,77.106z M41.558,74.541l16.246-44.635l2.349,0.855  L43.906,75.395L41.558,74.541z M36.859,72.831l16.246-44.635l2.349,0.855L39.208,73.686L36.859,72.831z M36.73,75.445l2.797,1.018  c0,0,0,0,0,0s0,0,0.001,0l4.697,1.709c0,0,0.001,0,0.001,0.001c0,0,0.001,0,0.001,0l2.797,1.018l-8.894,8.42L36.73,75.445z"></path>
  </g>
</svg>
